<?xml version="1.0" encoding="UTF-8"?>
<!DOCTYPE svg PUBLIC "-//W3C//DTD SVG 1.1//EN" "http://www.w3.org/Graphics/SVG/1.1/DTD/svg11.dtd">
<!-- Creator: CorelDRAW 2021.5 -->
<svg xmlns="http://www.w3.org/2000/svg" xml:space="preserve" width="212px" height="300px" version="1.1" style="shape-rendering:geometricPrecision; text-rendering:geometricPrecision; image-rendering:optimizeQuality; fill-rule:evenodd; clip-rule:evenodd"
viewBox="0 0 212 299.83"
 xmlns:xlink="http://www.w3.org/1999/xlink"
 xmlns:xodm="http://www.corel.com/coreldraw/odm/2003">
 <defs>
  <style type="text/css">
   <![CDATA[
    .str0 {stroke:#2B2A29;stroke-width:0.1;stroke-miterlimit:22.9256}
    .fil1 {fill:none}
    .fil3 {fill:#F08219}
    .fil2 {fill:#3667AE}
    .fil0 {fill:#2B2A29;fill-rule:nonzero}
   ]]>
  </style>
 </defs>
 <g id="Слой_x0020_1">
  <metadata id="CorelCorpID_0Corel-Layer"/>
  <path class="fil0" d="M111.28 87.01l-0.57 0 0 4.39c0,0.52 0.1,0.91 0.3,1.17 0.21,0.25 0.45,0.42 0.74,0.49 0.29,0.07 0.67,0.11 1.16,0.13l0 0.24 -8.34 0 0 -0.26c0.93,0 1.53,-0.16 1.8,-0.49 0.26,-0.32 0.39,-0.75 0.39,-1.28l0 -9.6c0,-0.66 -0.17,-1.12 -0.51,-1.39 -0.35,-0.27 -0.91,-0.4 -1.68,-0.4l0 -0.27 9.21 0c1.22,0 2.28,0.14 3.19,0.43 0.92,0.29 1.62,0.71 2.1,1.24 0.48,0.53 0.73,1.14 0.73,1.83 0,0.56 -0.16,1.05 -0.46,1.49 -0.31,0.43 -0.72,0.79 -1.24,1.07 -0.52,0.27 -1.09,0.49 -1.73,0.64 0.83,0.4 1.64,1.11 2.41,2.14l2.13 2.78c0.36,0.48 0.69,0.85 1,1.12 0.3,0.26 0.57,0.43 0.8,0.52 0.24,0.08 0.49,0.14 0.76,0.17l0 0.26 -5.72 0c-0.56,-0.77 -0.98,-1.39 -1.28,-1.84 -0.95,-1.44 -1.64,-2.44 -2.08,-2.99 -0.43,-0.56 -0.88,-0.97 -1.34,-1.21 -0.47,-0.25 -1.05,-0.38 -1.77,-0.38zm0.4 -6.51l-0.97 0 0 5.75 0.81 0c1.39,0 2.43,-0.26 3.13,-0.77 0.7,-0.51 1.05,-1.24 1.05,-2.2 0,-0.6 -0.15,-1.1 -0.45,-1.51 -0.3,-0.41 -0.76,-0.73 -1.36,-0.95 -0.59,-0.21 -1.33,-0.32 -2.21,-0.32z"/>
  <path id="_1" class="fil0" d="M133.55 83.21l0.1 2.29 -0.26 0c-0.12,-0.39 -0.25,-0.7 -0.4,-0.95 -0.14,-0.25 -0.35,-0.44 -0.62,-0.58 -0.27,-0.13 -0.64,-0.19 -1.11,-0.19l-2.67 0 0 4.29 2.13 0c0.64,0 1.1,-0.11 1.39,-0.33 0.29,-0.21 0.46,-0.53 0.51,-0.96l0.26 0 0 3 -0.26 0c-0.09,-0.45 -0.31,-0.76 -0.66,-0.91 -0.35,-0.15 -0.76,-0.23 -1.24,-0.23l-2.13 0 0 2.95c0,0.85 0.57,1.27 1.71,1.27l0.81 0c0.54,0 0.99,-0.05 1.33,-0.16 0.35,-0.11 0.63,-0.3 0.86,-0.57 0.22,-0.28 0.43,-0.66 0.61,-1.16l0.26 0 -0.2 2.46 -9.98 0 0 -0.2c0.69,0 1.14,-0.12 1.35,-0.36 0.2,-0.24 0.3,-0.56 0.3,-0.96l0 -7.16c0,-0.38 -0.09,-0.69 -0.28,-0.95 -0.18,-0.26 -0.61,-0.39 -1.28,-0.39l-0.09 0 0 -0.2 9.56 0z"/>
  <path id="_2" class="fil0" d="M139.54 83.21l8.08 6.58 0 -4.67c0,-0.62 -0.16,-1.04 -0.48,-1.26 -0.33,-0.23 -0.82,-0.38 -1.49,-0.45l0 -0.2 4.57 0 0 0.2c-0.51,0.04 -0.88,0.15 -1.13,0.31 -0.24,0.18 -0.4,0.37 -0.47,0.6 -0.08,0.22 -0.11,0.49 -0.11,0.8l0 8.43 -0.33 0 -9.7 -7.88 0 5.76c0,0.48 0.14,0.89 0.4,1.23 0.27,0.34 0.77,0.53 1.48,0.57l0 0.2 -4.73 0 0 -0.2c1.33,-0.08 1.98,-0.58 1.97,-1.5l0 -6.77c-0.04,-0.02 -0.08,-0.05 -0.14,-0.1 -0.06,-0.04 -0.15,-0.11 -0.27,-0.2 -0.13,-0.09 -0.24,-0.18 -0.35,-0.25 -0.8,-0.6 -1.5,-0.93 -2.11,-1l0 -0.2 4.81 0z"/>
  <path id="_3" class="fil0" d="M152.13 83.21l9.27 0c0.42,0 0.78,-0.04 1.06,-0.13l0.26 0 0.07 2.4 -0.25 0c-0.13,-0.7 -0.35,-1.15 -0.67,-1.34 -0.31,-0.19 -0.7,-0.29 -1.16,-0.29l-2.47 0 0 8.06c0,0.27 0.04,0.5 0.12,0.69 0.08,0.19 0.23,0.34 0.47,0.46 0.24,0.12 0.59,0.17 1.06,0.17l0 0.2 -6.24 0 0 -0.2c0.68,0 1.13,-0.12 1.33,-0.36 0.21,-0.24 0.31,-0.56 0.31,-0.96l0 -8.06 -2.47 0c-0.42,0 -0.77,0.1 -1.03,0.31 -0.26,0.2 -0.52,0.64 -0.77,1.32l-0.28 0 0.07 -2.4 0.26 0c0.28,0.09 0.64,0.13 1.06,0.13z"/>
  <path id="_4" class="fil0" d="M170.08 83.11l4.45 8.84c0.24,0.46 0.52,0.77 0.85,0.94 0.32,0.17 0.72,0.28 1.2,0.34l0 0.2 -6.29 0 0 -0.2c0.86,-0.04 1.29,-0.24 1.29,-0.62 0,-0.06 -0.01,-0.15 -0.04,-0.25 -0.03,-0.11 -0.07,-0.23 -0.11,-0.35 -0.04,-0.13 -0.07,-0.2 -0.08,-0.23l-1.11 -2.17 -3.96 0 -0.95 2.09c-0.12,0.25 -0.18,0.48 -0.18,0.68 0,0.31 0.12,0.53 0.36,0.63 0.24,0.11 0.53,0.18 0.86,0.22l0 0.2 -3.98 0 0 -0.2c0.41,-0.03 0.8,-0.18 1.16,-0.45 0.36,-0.26 0.71,-0.75 1.04,-1.46l3.77 -8.21 1.72 0zm-3.5 5.82l3.31 0 -1.71 -3.45 -1.6 3.45z"/>
  <path id="_5" class="fil0" d="M187.11 93.43l-10.09 0 0 -0.2c0.69,0 1.13,-0.12 1.34,-0.36 0.2,-0.23 0.3,-0.56 0.3,-0.96l0 -7.18c0,-0.44 -0.13,-0.77 -0.38,-0.99 -0.25,-0.22 -0.67,-0.33 -1.26,-0.33l0 -0.2 6.26 0 0 0.2c-0.69,0 -1.14,0.12 -1.36,0.36 -0.21,0.23 -0.31,0.56 -0.31,0.96l0 6.84c0,0.43 0.1,0.74 0.31,0.97 0.21,0.22 0.62,0.32 1.23,0.32l0.92 0c0.62,0 1.21,-0.12 1.76,-0.36 0.56,-0.25 1.05,-0.82 1.48,-1.71l0.26 0 -0.46 2.64z"/>
  <path class="fil0" d="M130.75 100.39l-0.18 0c-0.23,-0.48 -0.62,-0.87 -1.17,-1.17 -0.55,-0.3 -1.19,-0.45 -1.93,-0.45 -0.56,0 -1.03,0.1 -1.41,0.28 -0.38,0.19 -0.67,0.44 -0.88,0.75 -0.2,0.31 -0.35,0.65 -0.43,1.02 -0.08,0.36 -0.12,0.74 -0.12,1.15 0,1 0.26,1.77 0.77,2.3 0.52,0.54 1.21,0.81 2.09,0.81 0.63,0 1.02,-0.07 1.18,-0.22 0.16,-0.14 0.24,-0.35 0.24,-0.63l0 -0.8c0,-0.16 -0.02,-0.3 -0.05,-0.42 -0.04,-0.13 -0.12,-0.24 -0.26,-0.34 -0.13,-0.1 -0.34,-0.16 -0.61,-0.17l0 -0.15 3.73 0 0 0.15c-0.55,0.05 -0.82,0.31 -0.82,0.77l0 1.69c-0.96,0.34 -2.04,0.51 -3.25,0.51 -0.48,0 -0.93,-0.03 -1.32,-0.08 -0.4,-0.05 -0.75,-0.12 -1.05,-0.22 -0.31,-0.09 -0.57,-0.19 -0.78,-0.3 -0.21,-0.11 -0.41,-0.23 -0.6,-0.36 -0.25,-0.19 -0.48,-0.41 -0.68,-0.65 -0.2,-0.24 -0.36,-0.53 -0.49,-0.85 -0.13,-0.33 -0.19,-0.68 -0.19,-1.07 0,-0.53 0.12,-1 0.36,-1.43 0.24,-0.44 0.58,-0.81 1.02,-1.13 0.44,-0.32 0.95,-0.56 1.52,-0.73 0.57,-0.16 1.17,-0.24 1.8,-0.24 0.36,0 0.66,0.02 0.92,0.05 0.26,0.04 0.7,0.12 1.31,0.25 0.19,0.05 0.4,0.07 0.63,0.07 0.24,0 0.4,-0.12 0.47,-0.36l0.18 0 0 1.97z"/>
  <path id="_1_0" class="fil0" d="M135.48 102.15l-0.28 0 0 2.21c0,0.26 0.05,0.46 0.15,0.59 0.1,0.13 0.23,0.21 0.37,0.25 0.15,0.04 0.34,0.06 0.58,0.06l0 0.13 -4.2 0 0 -0.14c0.47,0 0.77,-0.08 0.91,-0.24 0.13,-0.16 0.2,-0.38 0.2,-0.65l0 -4.84c0,-0.34 -0.09,-0.57 -0.26,-0.71 -0.18,-0.13 -0.46,-0.2 -0.85,-0.2l0 -0.14 4.64 0c0.62,0 1.15,0.08 1.61,0.22 0.47,0.15 0.82,0.36 1.06,0.63 0.24,0.27 0.37,0.58 0.37,0.92 0,0.28 -0.08,0.53 -0.23,0.75 -0.16,0.22 -0.37,0.4 -0.63,0.54 -0.26,0.14 -0.55,0.25 -0.87,0.33 0.42,0.2 0.82,0.56 1.22,1.08l1.06 1.4c0.19,0.24 0.36,0.43 0.51,0.56 0.15,0.14 0.29,0.22 0.4,0.27 0.12,0.04 0.25,0.07 0.39,0.08l0 0.14 -2.89 0c-0.28,-0.39 -0.49,-0.7 -0.64,-0.93 -0.48,-0.73 -0.83,-1.23 -1.05,-1.51 -0.22,-0.28 -0.44,-0.49 -0.67,-0.61 -0.24,-0.13 -0.53,-0.19 -0.9,-0.19zm0.21 -3.29l-0.49 0 0 2.9 0.41 0c0.69,0 1.22,-0.13 1.57,-0.39 0.35,-0.25 0.53,-0.62 0.53,-1.11 0,-0.3 -0.08,-0.55 -0.23,-0.76 -0.15,-0.21 -0.38,-0.37 -0.68,-0.48 -0.3,-0.11 -0.67,-0.16 -1.11,-0.16z"/>
  <path id="_2_1" class="fil0" d="M141.59 101.91c0,-0.47 0.11,-0.92 0.32,-1.35 0.2,-0.43 0.51,-0.8 0.92,-1.13 0.4,-0.32 0.89,-0.57 1.47,-0.75 0.58,-0.18 1.23,-0.27 1.96,-0.27 0.73,0 1.39,0.09 1.97,0.27 0.57,0.18 1.06,0.44 1.47,0.76 0.4,0.33 0.7,0.71 0.91,1.13 0.21,0.43 0.31,0.89 0.31,1.37 0,0.48 -0.1,0.93 -0.3,1.35 -0.2,0.42 -0.5,0.8 -0.88,1.12 -0.39,0.33 -0.88,0.59 -1.47,0.77 -0.59,0.19 -1.26,0.29 -2,0.29 -0.8,0 -1.5,-0.11 -2.1,-0.32 -0.6,-0.21 -1.08,-0.49 -1.46,-0.84 -0.38,-0.35 -0.66,-0.73 -0.84,-1.15 -0.19,-0.42 -0.28,-0.84 -0.28,-1.25zm2.13 -0.09c0,0.47 0.05,0.93 0.14,1.39 0.09,0.45 0.32,0.88 0.7,1.28 0.38,0.39 0.96,0.59 1.72,0.59 1.07,0 1.76,-0.33 2.06,-1 0.3,-0.67 0.45,-1.35 0.45,-2.05 0,-0.54 -0.06,-1.05 -0.18,-1.52 -0.12,-0.47 -0.37,-0.88 -0.74,-1.21 -0.38,-0.34 -0.9,-0.51 -1.59,-0.51 -0.77,0 -1.34,0.19 -1.72,0.58 -0.38,0.38 -0.61,0.79 -0.7,1.22 -0.09,0.43 -0.14,0.84 -0.14,1.23z"/>
  <path id="_3_2" class="fil0" d="M158.75 105.39l0 -1.31 -0.03 0c-0.65,0.92 -1.62,1.39 -2.91,1.39 -0.65,0 -1.23,-0.12 -1.75,-0.36 -0.51,-0.23 -0.9,-0.53 -1.15,-0.89 -0.25,-0.38 -0.38,-0.98 -0.38,-1.8l0 -2.92c0,-0.29 -0.08,-0.51 -0.23,-0.66 -0.15,-0.16 -0.44,-0.23 -0.88,-0.23l0 -0.14 4.2 0 0 0.14c-0.46,0 -0.76,0.08 -0.9,0.24 -0.13,0.17 -0.2,0.38 -0.2,0.65l0 3.09c0,0.45 0.07,0.81 0.21,1.08 0.1,0.19 0.24,0.35 0.43,0.49 0.18,0.14 0.4,0.24 0.64,0.31 0.25,0.08 0.5,0.11 0.77,0.11 0.28,0 0.55,-0.04 0.8,-0.11 0.26,-0.08 0.49,-0.19 0.69,-0.33 0.21,-0.15 0.36,-0.31 0.47,-0.49 0.14,-0.27 0.22,-0.69 0.22,-1.26l0 -2.89c0,-0.32 -0.09,-0.56 -0.26,-0.69 -0.17,-0.14 -0.45,-0.21 -0.85,-0.21l0 -0.13 4.2 0 0 0.14c-0.46,0 -0.76,0.08 -0.89,0.24 -0.14,0.16 -0.21,0.38 -0.21,0.66l0 4.85c0,0.31 0.07,0.54 0.23,0.68 0.16,0.15 0.45,0.22 0.87,0.22l0 0.13 -3.09 0z"/>
  <path id="_4_3" class="fil0" d="M165.2 102.25l0 2.11c0,0.25 0.05,0.45 0.16,0.58 0.11,0.13 0.25,0.22 0.43,0.26 0.17,0.04 0.37,0.05 0.59,0.05l0 0.14 -4.28 0 0 -0.14c0.29,0 0.54,-0.04 0.77,-0.13 0.23,-0.1 0.34,-0.31 0.34,-0.64l0 -4.96c0,-0.34 -0.09,-0.57 -0.27,-0.71 -0.18,-0.13 -0.46,-0.2 -0.84,-0.2l0 -0.14 4.74 0c0.66,0 1.2,0.1 1.62,0.29 0.41,0.19 0.71,0.43 0.88,0.72 0.18,0.28 0.26,0.58 0.26,0.88 0,0.36 -0.09,0.66 -0.28,0.9 -0.2,0.24 -0.42,0.43 -0.67,0.57 -0.29,0.16 -0.62,0.28 -0.97,0.36 -0.36,0.08 -0.84,0.12 -1.43,0.12 -0.27,0 -0.62,-0.02 -1.05,-0.06zm0 -3.35l0 2.97c0.2,0.04 0.4,0.06 0.59,0.06 0.44,0 0.8,-0.09 1.08,-0.26 0.28,-0.16 0.47,-0.37 0.58,-0.62 0.11,-0.24 0.16,-0.49 0.16,-0.74 0,-0.26 -0.06,-0.5 -0.18,-0.71 -0.12,-0.22 -0.32,-0.4 -0.6,-0.54 -0.27,-0.13 -0.63,-0.2 -1.07,-0.2 -0.16,0 -0.35,0.01 -0.56,0.04z"/>
  <g id="_2041086789648">
   <path class="fil1 str0" d="M76.46 104.56c-1.75,0.33 -3.56,0.49 -5.4,0.49 -16.41,0 -29.72,-13.3 -29.72,-29.71 0,-16.41 13.31,-29.71 29.72,-29.71 16.41,0 29.71,13.3 29.71,29.71 0,6.21 -1.9,11.97 -5.16,16.74"/>
   <path class="fil1 str0" d="M60.61 87.21c-3.25,-2.92 -5.29,-7.16 -5.29,-11.87 0,-8.81 7.14,-15.95 15.95,-15.95 8.81,0 15.95,7.14 15.95,15.95 0,2.4 -0.53,4.68 -1.48,6.73"/>
   <polygon class="fil2 str0" points="70.74,90.42 86.96,90.42 100.63,105.32 84.41,105.32 "/>
   <line class="fil1 str0" x1="95.61" y1="92.08" x2="85.72" y2= "82.05" />
   <path class="fil3 str0" d="M41.34 75.34c0,16.41 13.31,29.71 29.72,29.71 1.84,0 3.65,-0.16 5.4,-0.49l-15.85 -17.35c-3.25,-2.92 -5.29,-7.16 -5.29,-11.87 0,-8.81 7.14,-15.95 15.95,-15.95 8.81,0 15.95,7.14 15.95,15.95 0,2.4 -0.53,4.68 -1.48,6.73l9.87 10.01c3.26,-4.77 5.16,-10.53 5.16,-16.74 0,-16.41 -13.3,-29.71 -29.71,-29.71 -16.41,0 -29.72,13.3 -29.72,29.71z"/>
  </g>
 </g>
</svg>
